Coordinates
version=1
nRows=22
nColumns=24
inDegrees=yes

Units are S.I. units (second, meters, Newtons, ...)
If the header above contains a line with 'inDegrees', this indicates whether rotational values are in degrees (yes) or radians (no).

endheader
time	pelvis_tilt	pelvis_list	pelvis_rotation	pelvis_tx	pelvis_ty	pelvis_tz	hip_flexion_r	hip_adduction_r	hip_rotation_r	knee_angle_r	ankle_angle_r	subtalar_angle_r	mtp_angle_r	hip_flexion_l	hip_adduction_l	hip_rotation_l	knee_angle_l	ankle_angle_l	subtalar_angle_l	mtp_angle_l	lumbar_extension	lumbar_bending	lumbar_rotation
      0.52000000	      4.64476864	      1.79843023	      2.61550629	     -0.71722896	      0.74237270	      0.31171492	      3.37832077	      1.20691870	    -10.38930686	    -21.46275882	     21.25028844	     -0.94861556	      0.00000000	     26.12325224	     -3.13763252	     -7.84615751	    -65.87467805	     -5.54614194	    -22.33044217	      0.00000000	    -12.99656830	     -1.49993099	      9.23997928
      0.52666667	      4.66288744	      1.97462389	      2.32183321	     -0.71021279	      0.74233259	      0.31134585	      2.70233734	      0.99509075	    -10.24671190	    -21.37989444	     21.76122637	     -0.82230909	      0.00000000	     26.64308612	     -2.81319198	     -8.00428155	    -64.33693354	     -5.25038483	    -21.98232642	      0.00000000	    -13.01240531	     -1.64769075	      9.43758150
      0.53333333	      4.78279401	      2.14895569	      1.88888537	     -0.70310144	      0.74232508	      0.31109824	      1.95813230	      0.76103384	    -10.07396515	    -21.35839545	     22.29033140	     -0.47092522	      0.00000000	     26.92057198	     -2.60468512	     -8.37113144	    -62.60121529	     -4.82288169	    -21.51208767	      0.00000000	    -13.13845110	     -1.80993373	      9.79812956
      0.54000000	      4.83722636	      2.26952374	      1.50642047	     -0.69609489	      0.74211381	      0.31085375	      1.29996942	      0.58827261	     -9.90811883	    -21.35140161	     22.81704473	     -0.10981182	      0.00000000	     27.23557343	     -2.41169778	     -8.60668105	    -60.73590302	     -4.43835668	    -21.07140076	      0.00000000	    -13.20104940	     -1.91482672	     10.14811985
      0.54666667	      4.79206449	      2.32358910	      1.28708385	     -0.68921999	      0.74168171	      0.31045106	      0.74014910	      0.51274779	     -9.78306834	    -21.30734590	     23.23303937	     -0.12785450	      0.00000000	     27.66416189	     -2.17107597	     -8.59244227	    -58.77135538	     -4.26125711	    -20.95676297	      0.00000000	    -13.17407983	     -1.93285239	     10.28239772
      0.55333333	      4.92920382	      2.43435571	      0.90576756	     -0.68219250	      0.74139286	      0.31020474	      0.00791506	      0.34494252	     -9.62969349	    -21.32022747	     23.71730375	      0.00746997	      0.00000000	     27.70983275	     -1.98229950	     -8.81952451	    -56.53117233	     -3.99430883	    -20.82528945	      0.00000000	    -13.34875224	     -2.04223739	     10.57831881
      0.56000000	      4.81799042	      2.31226082	      0.72283467	     -0.67542116	      0.74063376	      0.30987656	     -0.41445857	      0.45744379	     -9.60346684	    -21.37243996	     24.01333489	     -0.00449287	      0.00000000	     28.12735382	     -1.96003031	     -8.74177741	    -54.35194896	     -3.92281211	    -20.72788633	      0.00000000	    -13.26321899	     -1.86686169	     10.65437443
      0.56666667	      4.71894979	      2.14205896	      0.54591158	     -0.66868972	      0.73975860	      0.30959812	     -0.81757257	      0.60824362	     -9.65198308	    -21.47987743	     24.30835534	     -0.05326149	      0.00000000	     28.48175256	     -2.02997219	     -8.70926452	    -52.05376400	     -3.86095922	    -20.64193415	      0.00000000	    -13.20613558	     -1.66063390	     10.70981467
      0.57333333	      5.02671420	      2.42844351	      0.13127605	     -0.66146505	      0.73960336	      0.30927200	     -1.85490263	      0.24613440	     -9.36521753	    -21.30675807	     24.94460829	      0.22539326	      0.00000000	     27.92794273	     -1.61381327	     -8.97847818	    -49.10699008	     -3.44911016	    -20.54985013	      0.00000000	    -13.59136443	     -2.00047891	     11.22702985
      0.58000000	      5.03023125	      2.36496938	     -0.06320261	     -0.65458370	      0.73878720	      0.30890820	     -2.41922938	      0.26751732	     -9.38476812	    -21.36518332	     25.36308615	      0.29083127	      0.00000000	     27.90160243	     -1.54787664	     -9.00053628	    -46.36135363	     -3.24264024	    -20.37068993	      0.00000000	    -13.64912912	     -1.92044694	     11.40809586
      0.58666667	      5.03810175	      2.27875735	     -0.24440177	     -0.64765215	      0.73791554	      0.30858131	     -2.99786236	      0.31417822	     -9.41941096	    -21.40986286	     25.74130229	      0.33657554	      0.00000000	     27.79081102	     -1.50888960	     -9.02386969	    -43.49319247	     -3.03961190	    -20.12073903	      0.00000000	    -13.71415297	     -1.83235153	     11.57289919
      0.59333333	      5.06514925	      2.16850922	     -0.41997921	     -0.64066256	      0.73700979	      0.30825974	     -3.60338522	      0.38202192	     -9.47965381	    -21.46159722	     26.09699497	      0.40407483	      0.00000000	     27.57577661	     -1.51146798	     -9.10067666	    -40.49802443	     -2.81648546	    -19.74630128	      0.00000000	    -13.79171887	     -1.72915451	     11.74196038
      0.60000000	      5.18869968	      2.04141152	     -0.63605330	     -0.63353050	      0.73614281	      0.30806520	     -4.35258363	      0.45538948	     -9.55686403	    -21.45922590	     26.46695767	      0.65739202	      0.00000000	     27.17217768	     -1.59095676	     -9.33196676	    -37.42972231	     -2.41684840	    -18.97114506	      0.00000000	    -13.97165779	     -1.64585316	     11.97570854
      0.60666667	      5.19094160	      1.91333701	     -0.78279881	     -0.62646728	      0.73508384	      0.30764591	     -4.91190985	      0.51820378	     -9.65910670	    -21.56995363	     26.78746710	      0.67619861	      0.00000000	     26.85144287	     -1.58451494	     -9.43336215	    -34.28048172	     -2.13408593	    -18.29588582	      0.00000000	    -14.02957285	     -1.52155745	     12.12397567
      0.61333333	      5.32110119	      1.75912558	     -0.98531634	     -0.61912776	      0.73414520	      0.30737493	     -5.68673987	      0.60359273	     -9.71209426	    -21.58013590	     27.12383454	      0.94662233	      0.00000000	     26.31221302	     -1.68741358	     -9.78877050	    -31.12566872	     -1.58531465	    -17.01295029	      0.00000000	    -14.18409390	     -1.40608884	     12.37959619
      0.62000000	      5.32635466	      1.62073593	     -1.13734623	     -0.61191467	      0.73296553	      0.30708993	     -6.22100125	      0.67039118	     -9.78962518	    -21.77812378	     27.38472588	      0.96576650	      0.00000000	     25.86433468	     -1.67995173	     -9.86426961	    -27.93122317	     -1.33600430	    -16.11173323	      0.00000000	    -14.21747401	     -1.37764689	     12.53674035
      0.62666667	      5.43620078	      1.48753427	     -1.35272968	     -0.60448151	      0.73192098	      0.30654442	     -6.92792606	      0.67085911	     -9.82968132	    -21.89528943	     27.64674544	      1.14555772	      0.00000000	     25.25921879	     -1.68606095	    -10.21663521	    -24.81777828	     -0.97618012	    -14.92939520	      0.00000000	    -14.34631622	     -1.21169994	     12.77251386
      0.63333333	      5.72608502	      1.36674545	     -1.69125440	     -0.59661660	      0.73106428	      0.30649426	     -7.88043834	      0.63970614	     -9.89049003	    -21.96097115	     27.94451861	      1.55544719	      0.00000000	     24.39644169	     -1.81858408	    -10.96591734	    -21.85331192	     -0.25429765	    -13.01733360	      0.00000000	    -14.59719285	     -1.26889625	     13.17129014
      0.64000000	      5.74369785	      1.18565958	     -1.88845202	     -0.58911899	      0.72981307	      0.30586409	     -8.42512754	      0.67744479	     -9.73240341	    -22.23126609	     28.15331273	      1.83123870	      0.00000000	     23.93012160	     -1.83332588	    -11.23035901	    -19.13083305	      0.22766952	    -11.39010441	      0.00000000	    -14.61747489	     -1.05782653	     13.41975142
      0.64666667	      5.83550983	      1.05752983	     -2.15816779	     -0.58138855	      0.72864940	      0.30540646	     -9.01862385	      0.61106046	     -9.65105038	    -22.57279502	     28.34873477	      2.10011935	      0.00000000	     23.35766839	     -1.84154142	    -11.64502525	    -16.62706313	      0.74060860	     -9.71044540	      0.00000000	    -14.67511944	     -1.00133549	     13.74932361
      0.65333333	      5.95818449	      0.97242672	     -2.43408272	     -0.57355783	      0.72758410	      0.30489082	     -9.63311040	      0.47999552	     -9.51440571	    -22.94124695	     28.41966676	      2.28220864	      0.00000000	     22.69496316	     -1.74519659	    -11.86999152	    -14.25481385	      0.88547047	     -8.77178420	      0.00000000	    -14.75372271	     -1.00370433	     14.03740992
      0.66000000	      6.06229356	      0.88220297	     -2.72954780	     -0.56565622	      0.72651592	      0.30439231	    -10.18293117	      0.33338934	     -9.30916398	    -23.39900314	     28.45160859	      2.55077395	      0.00000000	     22.09997725	     -1.67253611	    -12.08905991	    -12.25000615	      1.11904401	     -7.80056678	      0.00000000	    -14.80250145	     -1.01477348	     14.37866732
